<svg width="16" height="15" viewBox="0 0 16 15" fill="none" xmlns="http://www.w3.org/2000/svg">
<path d="M0.135376 7.5C0.135376 5.51088 0.925552 3.60322 2.33208 2.1967C3.7386 0.790176 5.64625 0 7.63538 0C9.6245 0 11.5322 0.790176 12.9387 2.1967C14.3452 3.60322 15.1354 5.51088 15.1354 7.5C15.1354 9.48912 14.3452 11.3968 12.9387 12.8033C11.5322 14.2098 9.6245 15 7.63538 15C5.64625 15 3.7386 14.2098 2.33208 12.8033C0.925552 11.3968 0.135376 9.48912 0.135376 7.5ZM7.16663 1.00969C6.5385 1.20094 5.91506 1.77844 5.39756 2.74875C5.2635 3 5.13881 3.27375 5.02725 3.56625C5.68819 3.71344 6.40725 3.80719 7.16663 3.83531V1.00969ZM4.11881 3.31781C4.25194 2.95781 4.40381 2.62031 4.56975 2.30719C4.73185 2.00068 4.91905 1.70811 5.12944 1.4325C4.33131 1.76325 3.60624 2.24812 2.99569 2.85938C3.33506 3.03187 3.711 3.18656 4.11881 3.31875V3.31781ZM3.42506 7.03125C3.45881 6.02812 3.60131 5.07469 3.83381 4.21125C3.32634 4.04896 2.83515 3.83961 2.36663 3.58594C1.61995 4.58846 1.17677 5.78426 1.08975 7.03125H3.42413H3.42506ZM4.73756 4.46156C4.51655 5.30134 4.39076 6.16333 4.36256 7.03125H7.16663V4.77281C6.3135 4.74469 5.49506 4.63687 4.73756 4.46156ZM8.10413 4.77188V7.03125H10.9073C10.8794 6.16336 10.7539 5.30138 10.5332 4.46156C9.77569 4.63687 8.95725 4.74375 8.10413 4.77281V4.77188ZM4.3635 7.96875C4.39631 8.89406 4.5285 9.76313 4.73756 10.5384C5.53543 10.3574 6.34886 10.2535 7.16663 10.2281V7.96875H4.3635ZM8.10413 7.96875V10.2272C8.95725 10.2553 9.77569 10.3631 10.5332 10.5384C10.7423 9.76313 10.8744 8.89406 10.9082 7.96875H8.10413ZM5.02725 11.4338C5.13975 11.7262 5.2635 12 5.39756 12.2513C5.91506 13.2216 6.53944 13.7981 7.16663 13.9903V11.1656C6.40725 11.1937 5.68819 11.2875 5.02725 11.4347V11.4338ZM5.13038 13.5675C4.91965 13.2919 4.73214 12.9994 4.56975 12.6928C4.39708 12.366 4.24644 12.0281 4.11881 11.6812C3.73316 11.8052 3.35766 11.9588 2.99569 12.1406C3.60624 12.7519 4.33131 13.2368 5.12944 13.5675H5.13038ZM3.83381 10.7888C3.59042 9.8674 3.45296 8.92127 3.42413 7.96875H1.08975C1.17672 9.21576 1.6199 10.4116 2.36663 11.4141C2.80725 11.1722 3.29944 10.9622 3.83381 10.7888ZM10.1413 13.5675C10.939 13.2369 11.6638 12.7524 12.2741 12.1416C11.9125 11.9597 11.5373 11.8062 11.1519 11.6822C11.0243 12.0287 10.8736 12.3663 10.701 12.6928C10.5389 12.9993 10.3517 13.2919 10.1413 13.5675ZM8.10413 11.1647V13.9903C8.73225 13.7991 9.35569 13.2216 9.87319 12.2513C10.0073 12 10.1319 11.7262 10.2435 11.4338C9.54001 11.2795 8.82392 11.1898 8.10413 11.1656V11.1647ZM11.4369 10.7888C11.9713 10.9622 12.4635 11.1722 12.9041 11.4141C13.6508 10.4116 14.094 9.21576 14.181 7.96875H11.8466C11.8178 8.92127 11.6803 9.8674 11.4369 10.7888ZM14.181 7.03125C14.094 5.78424 13.6508 4.58843 12.9041 3.58594C12.4635 3.82781 11.9713 4.03781 11.4369 4.21125C11.6694 5.07375 11.8119 6.02812 11.8466 7.03125H14.181ZM10.701 2.30719C10.8669 2.62031 11.0188 2.95781 11.1529 3.31781C11.5379 3.19382 11.9128 3.04024 12.2741 2.85844C11.6637 2.24796 10.9389 1.76374 10.1413 1.43344C10.3457 1.69875 10.5332 1.99312 10.701 2.30719ZM10.2435 3.56625C10.137 3.28639 10.0133 3.01337 9.87319 2.74875C9.35569 1.77844 8.73225 1.20187 8.10413 1.00969V3.83438C8.8635 3.80625 9.58256 3.7125 10.2435 3.56531V3.56625Z" fill="white"/>
</svg>
