<svg width="38" height="31" viewBox="0 0 38 31" fill="none" xmlns="http://www.w3.org/2000/svg">
<path d="M16.3462 30.0678C17.9393 30.0678 19.2308 29.0977 19.2308 27.9011C19.2308 26.7045 17.9393 25.7344 16.3462 25.7344C14.753 25.7344 13.4615 26.7045 13.4615 27.9011C13.4615 29.0977 14.753 30.0678 16.3462 30.0678Z" fill="#F8F8F8"/>
<path d="M29.8076 30.0678C31.4007 30.0678 32.6922 29.0977 32.6922 27.9011C32.6922 26.7045 31.4007 25.7344 29.8076 25.7344C28.2145 25.7344 26.923 26.7045 26.923 27.9011C26.923 29.0977 28.2145 30.0678 29.8076 30.0678Z" fill="#F8F8F8"/>
<path d="M21.1538 11.5122H25V7.19333H30.75V4.30444H25V0H21.1538V4.30444H15.4038V7.19333H21.1538V11.5122Z" fill="#F8F8F8"/>
<path d="M15.3846 24.29H30.7692C31.1566 24.2891 31.5346 24.2004 31.8538 24.0354C32.1729 23.8705 32.4182 23.637 32.5577 23.3655L38 12.7344H33.8846L29.4423 21.4011H16.6731L8.03846 5.84442C7.7457 5.31729 7.25148 4.86717 6.61824 4.55094C5.98501 4.23471 5.24119 4.06657 4.48077 4.06776H0V6.95664H4.48077L13.6154 23.3944C13.7597 23.6582 14.0047 23.884 14.3195 24.0434C14.6343 24.2028 15.005 24.2886 15.3846 24.29Z" fill="#F8F8F8"/>
</svg>
