<svg width="15" height="18" viewBox="0 0 15 18" fill="none" xmlns="http://www.w3.org/2000/svg">
<path d="M7.5 0C5.5116 0.00221173 3.60531 0.747945 2.1993 2.07362C0.793282 3.39929 0.00235375 5.19665 7.97923e-06 7.07143C-0.00237354 8.6035 0.528403 10.094 1.51092 11.3143C1.51092 11.3143 1.71546 11.5682 1.74887 11.6049L7.5 18L13.2539 11.6016C13.2839 11.5676 13.4891 11.3143 13.4891 11.3143L13.4898 11.3124C14.4718 10.0926 15.0023 8.6028 15 7.07143C14.9976 5.19665 14.2067 3.39929 12.8007 2.07362C11.3947 0.747945 9.4884 0.00221173 7.5 0ZM7.5 9.64286C6.9606 9.64286 6.43331 9.49204 5.98481 9.20949C5.53631 8.92694 5.18675 8.52534 4.98033 8.05547C4.77391 7.5856 4.7199 7.06858 4.82513 6.56977C4.93037 6.07096 5.19011 5.61277 5.57153 5.25315C5.95294 4.89353 6.4389 4.64863 6.96794 4.54941C7.49697 4.45019 8.04534 4.50111 8.54368 4.69574C9.04202 4.89036 9.46797 5.21995 9.76764 5.64282C10.0673 6.06569 10.2273 6.56285 10.2273 7.07143C10.2264 7.75315 9.93874 8.40671 9.42747 8.88876C8.91621 9.37082 8.22304 9.64201 7.5 9.64286Z" fill="#F8F8F8"/>
</svg>
