<svg width="36" height="52" viewBox="0 0 36 52" fill="none" xmlns="http://www.w3.org/2000/svg">
<path d="M4.82485 50.9936C3.6995 50.9952 2.6089 50.7052 1.74237 50.1739C1.25467 49.8748 0.851534 49.5074 0.556039 49.0928C0.260545 48.6782 0.0785035 48.2245 0.0203416 47.7578C-0.0378203 47.291 0.0290407 46.8204 0.217094 46.3728C0.405147 45.9252 0.710693 45.5095 1.11624 45.1494L22.6936 26.0489L1.88687 6.91274C1.48679 6.54823 1.18802 6.12882 1.00774 5.6786C0.82745 5.22839 0.769202 4.75625 0.836338 4.28933C0.903474 3.82241 1.09467 3.3699 1.39894 2.95783C1.70321 2.54576 2.11455 2.18224 2.60932 1.88816C3.10765 1.56375 3.69123 1.31905 4.32344 1.16943C4.95565 1.0198 5.62284 0.968468 6.28313 1.01866C6.94342 1.06885 7.58256 1.21948 8.16044 1.4611C8.73832 1.70271 9.24247 2.03009 9.64123 2.42269L32.9043 23.8038C33.6127 24.4415 34 25.2413 34 26.0667C34 26.8921 33.6127 27.6919 32.9043 28.3295L8.82245 49.7107C8.33928 50.1419 7.72551 50.4828 7.03094 50.7057C6.33638 50.9286 5.58057 51.0272 4.82485 50.9936Z" fill="white"/>
<path d="M6.82485 51.9933C5.6995 51.995 4.6089 51.6934 3.74237 51.1409C3.25467 50.8298 2.85153 50.4477 2.55604 50.0165C2.26054 49.5853 2.0785 49.1135 2.02034 48.6281C1.96218 48.1427 2.02904 47.6532 2.21709 47.1877C2.40515 46.7222 2.71069 46.2898 3.11624 45.9153L24.6936 26.0508L3.88687 6.14925C3.48679 5.77016 3.18802 5.33397 3.00774 4.86575C2.82745 4.39753 2.7692 3.9065 2.83634 3.4209C2.90347 2.9353 3.09467 2.4647 3.39894 2.03614C3.70321 1.60759 4.11455 1.22952 4.60932 0.92369C5.10765 0.586303 5.69123 0.331817 6.32344 0.176202C6.95565 0.0205882 7.62284 -0.0327929 8.28313 0.0194066C8.94342 0.0716062 9.58256 0.228261 10.1604 0.479539C10.7383 0.730817 11.2425 1.07129 11.6412 1.4796L34.9043 23.716C35.6127 24.3791 36 25.2109 36 26.0694C36 26.9278 35.6127 27.7596 34.9043 28.4227L10.8224 50.6591C10.3393 51.1076 9.72551 51.4621 9.03094 51.694C8.33638 51.9258 7.58057 52.0283 6.82485 51.9933Z" fill="black"/>
</svg>
