<svg width="36" height="52" viewBox="0 0 36 52" fill="none" xmlns="http://www.w3.org/2000/svg">
<path d="M30.3586 50.9998C29.6329 51.0016 28.9158 50.8838 28.26 50.6552C27.6043 50.4265 27.0266 50.0928 26.5694 49.6784L3.10514 28.2519C2.39061 27.6129 2 26.8114 2 25.9843C2 25.1571 2.39061 24.3556 3.10514 23.7166L27.3952 2.29007C28.2198 1.56079 29.4047 1.10217 30.6893 1.01511C31.9739 0.928049 33.2529 1.21967 34.245 1.82582C35.2371 2.43197 35.861 3.303 35.9794 4.2473C36.0979 5.19159 35.7012 6.13178 34.8766 6.86106L13.1612 26.0021L34.1479 45.1432C34.7419 45.6673 35.1193 46.3056 35.2353 46.9825C35.3513 47.6594 35.2011 48.3466 34.8025 48.9627C34.4038 49.5788 33.7735 50.0981 32.9859 50.4591C32.1984 50.8201 31.2867 51.0077 30.3586 50.9998Z" fill="#FCFCFC"/>
<path d="M28.3586 51.9997C27.6329 52.0016 26.9158 51.8792 26.26 51.6414C25.6043 51.4036 25.0266 51.0565 24.5694 50.6256L1.10514 28.342C0.390615 27.6774 0 26.8439 0 25.9836C0 25.1234 0.390615 24.2898 1.10514 23.6253L25.3952 1.34167C26.2198 0.58322 27.4047 0.10626 28.6893 0.0157155C29.9739 -0.0748292 31.2529 0.228458 32.245 0.858856C33.2371 1.48925 33.861 2.39513 33.9794 3.37719C34.0979 4.35925 33.7012 5.33706 32.8766 6.0955L11.1612 26.0022L32.1479 45.9089C32.7419 46.454 33.1193 47.1179 33.2353 47.8218C33.3513 48.5258 33.2011 49.2405 32.8025 49.8812C32.4038 50.522 31.7735 51.062 30.9859 51.4375C30.1984 51.8129 29.2867 52.008 28.3586 51.9997Z" fill="black"/>
</svg>
