<svg width="13" height="22" viewBox="0 0 13 22" fill="none" xmlns="http://www.w3.org/2000/svg">
<path d="M1.8448 21.9972C1.41451 21.9979 0.997519 21.8703 0.666201 21.6365C0.479728 21.5049 0.325586 21.3432 0.212603 21.1608C0.0996201 20.9784 0.0300161 20.7788 0.00777767 20.5734C-0.0144607 20.3681 0.0111038 20.161 0.0830064 19.964C0.154909 19.7671 0.271736 19.5842 0.426798 19.4257L8.67697 11.0215L0.721449 2.6016C0.568478 2.44122 0.454243 2.25668 0.385311 2.05859C0.316378 1.86049 0.294106 1.65275 0.319776 1.44731C0.345446 1.24186 0.41855 1.04276 0.534888 0.861445C0.651226 0.680133 0.808505 0.520184 0.997681 0.390792C1.18822 0.248051 1.41135 0.140384 1.65308 0.0745472C1.89481 0.00871038 2.14991 -0.0138739 2.40237 0.0082105C2.65484 0.0302949 2.89922 0.0965718 3.12017 0.202882C3.34112 0.309192 3.53388 0.453239 3.68635 0.625985L12.5811 10.0337C12.8519 10.3143 13 10.6662 13 11.0293C13 11.3925 12.8519 11.7444 12.5811 12.025L3.37329 21.4327C3.18855 21.6224 2.95387 21.7724 2.6883 21.8705C2.42273 21.9686 2.13375 22.012 1.8448 21.9972Z" fill="black"/>
</svg>
