<svg width="13" height="22" viewBox="0 0 13 22" fill="none" xmlns="http://www.w3.org/2000/svg">
<path d="M10.843 21.9999C10.5655 22.0007 10.2913 21.9489 10.0406 21.8483C9.78988 21.7477 9.56899 21.6008 9.39417 21.4185L0.422554 11.9908C0.149353 11.7097 0 11.357 0 10.9931C0 10.6291 0.149353 10.2765 0.422554 9.99531L9.70994 0.567629C10.0252 0.246747 10.4783 0.0449563 10.9695 0.00664887C11.4606 -0.0316585 11.9497 0.0966552 12.329 0.363362C12.7083 0.630069 12.9469 1.01332 12.9921 1.42881C13.0374 1.8443 12.8857 2.25799 12.5705 2.57887L4.26753 11.0009L12.2918 19.423C12.519 19.6536 12.6633 19.9345 12.7076 20.2323C12.752 20.5302 12.6945 20.8325 12.5421 21.1036C12.3897 21.3747 12.1487 21.6032 11.8476 21.762C11.5464 21.9208 11.1978 22.0034 10.843 21.9999Z" fill="black"/>
</svg>
